<svg width="32" height="32" viewBox="0 0 32 32" fill="none" xmlns="http://www.w3.org/2000/svg">
  <!-- Painter's palette shape -->
  <path d="M26 12C26 6.477 21.523 2 16 2C10.477 2 6 6.477 6 12C6 15.5 7.5 18.5 10 20.5C10 23 10 26 10 28C10 29.1046 10.8954 30 12 30H20C21.1046 30 22 29.1046 22 28C22 26 22 23 22 20.5C24.5 18.5 26 15.5 26 12Z" fill="#2D3748" stroke="#1A202C" stroke-width="1.5"/>

  <!-- Paint dots on palette -->
  <circle cx="12" cy="10" r="2" fill="#EF4444"/>
  <circle cx="16" cy="8" r="2" fill="#3B82F6"/>
  <circle cx="20" cy="10" r="2" fill="#FBBF24"/>
  <circle cx="14" cy="14" r="2" fill="#10B981"/>
  <circle cx="18" cy="14" r="2" fill="#8B5CF6"/>

  <!-- Thumb hole -->
  <ellipse cx="16" cy="22" rx="2.5" ry="2" fill="#1A202C"/>
</svg>
